<?xml version="1.0" standalone="no"?>
<!DOCTYPE svg PUBLIC "-//W3C//DTD SVG 20010904//EN"
 "http://www.w3.org/TR/2001/REC-SVG-20010904/DTD/svg10.dtd">
<svg version="1.0" xmlns="http://www.w3.org/2000/svg"
 width="512.000000pt" height="512.000000pt" viewBox="0 0 512.000000 512.000000"
 preserveAspectRatio="xMidYMid meet">

<g transform="translate(0.000000,512.000000) scale(0.100000,-0.100000)"
fill="#000000" stroke="none">
<path d="M2435 4953 c-169 -22 -345 -84 -482 -169 -155 -97 -198 -154 -190
-252 8 -108 99 -187 208 -180 50 4 68 12 143 62 288 193 605 193 892 0 87 -58
89 -59 160 -59 65 0 76 3 111 31 113 90 109 242 -10 332 -170 127 -353 202
-562 231 -73 11 -206 12 -270 4z"/>
<path d="M2472 4469 c-91 -12 -169 -36 -237 -74 -102 -57 -135 -104 -135 -196
0 -91 57 -164 147 -188 51 -14 77 -9 168 32 60 28 81 32 151 32 70 0 88 -4
140 -31 99 -52 159 -52 235 -1 68 46 99 152 68 234 -46 123 -319 221 -537 192z"/>
<path d="M2500 3991 c-111 -36 -172 -118 -172 -231 0 -138 96 -234 232 -234
136 0 232 96 232 234 0 95 -44 170 -126 212 -43 22 -128 32 -166 19z"/>
<path d="M1050 3333 c-30 -16 -67 -44 -82 -64 -19 -23 -65 -136 -133 -328 -58
-161 -105 -294 -105 -297 0 -2 211 -4 470 -4 259 0 470 4 470 8 0 5 23 165 50
357 28 192 50 350 50 352 0 2 -150 3 -333 3 l-333 0 -54 -27z"/>
<path d="M1930 3352 c0 -5 -22 -165 -50 -357 -27 -192 -50 -350 -50 -352 0 -2
329 -3 730 -3 402 0 730 1 730 3 0 2 -22 160 -50 352 -28 192 -50 352 -50 357
0 4 -283 8 -630 8 -346 0 -630 -4 -630 -8z"/>
<path d="M3350 3357 c0 -2 23 -160 50 -352 28 -192 50 -352 50 -357 0 -4 212
-8 470 -8 259 0 470 2 470 5 0 10 -201 569 -214 593 -21 40 -65 78 -116 101
-42 19 -65 21 -377 21 -183 0 -333 -1 -333 -3z"/>
<path d="M665 2468 c-3 -7 -45 -125 -94 -263 -49 -137 -92 -258 -96 -267 -7
-17 23 -18 542 -18 l549 0 37 268 c21 147 37 273 37 280 0 18 -968 18 -975 0z"/>
<path d="M1805 2468 c-4 -15 -75 -517 -75 -535 0 -10 173 -13 830 -13 l830 0
-1 23 c0 12 -17 137 -37 277 l-38 255 -752 3 c-597 2 -753 0 -757 -10z"/>
<path d="M3480 2468 c0 -7 16 -133 37 -280 l37 -268 548 0 c302 0 548 1 548 3
0 1 -45 126 -99 277 l-99 275 -486 3 c-385 2 -486 0 -486 -10z"/>
<path d="M402 1733 c-5 -16 -46 -130 -91 -255 -89 -249 -97 -298 -62 -373 23
-49 69 -97 119 -121 34 -18 73 -19 548 -22 l510 -3 53 373 c29 205 55 385 58
401 l6 27 -566 0 -565 0 -10 -27z"/>
<path d="M1651 1388 c-29 -205 -55 -385 -58 -400 l-5 -28 972 0 973 0 -6 28
c-3 15 -29 195 -58 400 l-52 372 -857 0 -857 0 -52 -372z"/>
<path d="M3580 1752 c0 -5 25 -181 55 -392 30 -211 55 -387 55 -392 0 -12 973
-10 1023 3 65 16 118 58 149 118 46 88 41 124 -56 399 -47 130 -88 245 -91
255 -7 16 -43 17 -571 17 -310 0 -564 -4 -564 -8z"/>
<path d="M2320 746 c0 -43 -5 -58 -25 -80 -24 -26 -25 -26 -176 -26 -179 0
-214 -8 -279 -67 -72 -65 -96 -151 -68 -247 16 -55 99 -138 154 -154 59 -17
1209 -17 1268 0 55 16 138 99 154 154 28 96 4 182 -68 247 -65 59 -100 67
-279 67 -151 0 -152 0 -176 26 -20 22 -25 37 -25 80 l0 54 -240 0 -240 0 0
-54z"/>
</g>
</svg>
